<svg width="31" height="30" viewBox="0 0 31 30" fill="none" xmlns="http://www.w3.org/2000/svg">
<path d="M28.8213 0C29.517 0 30.0845 0.673828 30.0845 1.5C30.0845 2.32617 29.517 3 28.8213 3H26.0187L22.7029 18.75C22.4216 20.0859 21.4151 21 20.2555 21H5.76868C4.62888 21 3.66178 20.1035 3.36079 18.7969L0.0844746 4.5H21.2424L20.6108 7.5H3.36079L5.76868 18H20.2555L23.5713 2.25C23.8526 0.914062 24.8591 0 26.0187 0H28.8213ZM7.34763 21C9.42493 21 11.1371 23.0332 11.1371 25.5C11.1371 27.9668 9.42493 30 7.34763 30C5.27033 30 3.55816 27.9668 3.55816 25.5C3.55816 23.0332 5.27033 21 7.34763 21ZM18.7161 21C20.7934 21 22.5055 23.0332 22.5055 25.5C22.5055 27.9668 20.7934 30 18.7161 30C16.6388 30 14.9266 27.9668 14.9266 25.5C14.9266 23.0332 16.6388 21 18.7161 21ZM18.7161 24C18.0055 24 17.4529 24.6562 17.4529 25.5C17.4529 26.3438 18.0055 27 18.7161 27C19.4266 27 19.9792 26.3438 19.9792 25.5C19.9792 24.6562 19.4266 24 18.7161 24ZM7.34763 24C6.63711 24 6.08447 24.6562 6.08447 25.5C6.08447 26.3438 6.63711 27 7.34763 27C8.05816 27 8.61079 26.3438 8.61079 25.5C8.61079 24.6562 8.05816 24 7.34763 24Z" fill="#6F5C59"/>
</svg>
