<svg width="135" height="31" viewBox="0 0 135 31" fill="none" xmlns="http://www.w3.org/2000/svg">
<path d="M10.0643 12.47C10.4243 12.47 10.7309 12.5966 10.9843 12.85C11.2376 13.1033 11.3643 13.41 11.3643 13.77C11.3643 14.13 11.2376 14.4366 10.9843 14.69C10.7309 14.9433 10.4243 15.07 10.0643 15.07C9.71759 15.07 9.41759 14.9433 9.16426 14.69C8.91093 14.4366 8.78426 14.13 8.78426 13.77C8.78426 13.41 8.91093 13.1033 9.16426 12.85C9.41759 12.5966 9.71759 12.47 10.0643 12.47ZM13.1243 12.47C13.4709 12.47 13.7709 12.5966 14.0243 12.85C14.2776 13.1033 14.4043 13.41 14.4043 13.77C14.4043 14.13 14.2776 14.4366 14.0243 14.69C13.7709 14.9433 13.4709 15.07 13.1243 15.07C12.7643 15.07 12.4576 14.9433 12.2043 14.69C11.9509 14.4366 11.8243 14.13 11.8243 13.77C11.8243 13.41 11.9509 13.1033 12.2043 12.85C12.4576 12.5966 12.7643 12.47 13.1243 12.47ZM20.0043 13.01V20.01C20.0043 20.57 19.8309 21.0433 19.4843 21.43C19.0576 21.95 18.5109 22.21 17.8443 22.21H6.64426C5.77759 22.21 5.03093 21.93 4.40426 21.37C3.56426 20.6633 3.14426 19.7433 3.14426 18.61V15.45L4.38426 14.45H5.58426V18.61C5.58426 19.0766 5.74426 19.4566 6.06426 19.75C6.37093 20.03 6.72426 20.17 7.12426 20.17H17.0643C17.3976 20.17 17.5643 20.0033 17.5643 19.67V13.01H20.0043ZM25.4132 7.88996V19.67C25.4132 19.8033 25.4532 19.91 25.5332 19.99C25.6132 20.11 25.7398 20.17 25.9132 20.17H26.4332V22.21H25.1332C24.5865 22.21 24.1065 22.0166 23.6932 21.63C23.2132 21.19 22.9732 20.65 22.9732 20.01V7.88996H25.4132ZM34.0388 8.60996C34.3855 8.60996 34.6855 8.73663 34.9388 8.98996C35.1921 9.24329 35.3188 9.54996 35.3188 9.90996C35.3188 10.2566 35.1921 10.5566 34.9388 10.81C34.6855 11.0633 34.3855 11.19 34.0388 11.19C33.6788 11.19 33.3721 11.0633 33.1188 10.81C32.8655 10.5566 32.7388 10.2566 32.7388 9.90996C32.7388 9.54996 32.8655 9.24329 33.1188 8.98996C33.3721 8.73663 33.6788 8.60996 34.0388 8.60996ZM30.4788 20.17C29.8788 19.37 29.5788 18.4033 29.5788 17.27C29.5788 16.2433 29.8388 15.3566 30.3588 14.61C31.1988 13.3833 32.4121 12.77 33.9988 12.77C35.1988 12.77 36.2055 13.1433 37.0188 13.89C37.9655 14.7566 38.4388 15.8833 38.4388 17.27C38.4388 18.3633 38.1388 19.33 37.5388 20.17H38.9188V22.21H35.9188C35.0521 22.21 34.4255 22.1233 34.0388 21.95H33.9388C33.5655 22.1233 32.9388 22.21 32.0588 22.21H26.4988V20.17H30.4788ZM33.9988 20.15C34.5988 20.0833 35.0788 19.81 35.4388 19.33C35.8121 18.8366 35.9988 18.21 35.9988 17.45C35.9988 16.65 35.8188 16.01 35.4588 15.53C35.0988 15.05 34.6121 14.81 33.9988 14.81C33.3988 14.81 32.9121 15.05 32.5388 15.53C32.1788 16.01 31.9988 16.65 31.9988 17.45C31.9988 18.21 32.1788 18.8366 32.5388 19.33C32.9121 19.81 33.3988 20.0833 33.9988 20.15ZM45.0039 13.01V19.87V20.17H46.0239V22.21H45.3239L44.5839 21.39H44.5439C44.0906 21.9366 43.5239 22.21 42.8439 22.21H38.9839V20.17H42.0039C42.1906 20.17 42.3239 20.1166 42.4039 20.01C42.5239 19.9033 42.5839 19.77 42.5839 19.61V13.01H45.0039ZM40.6639 23.67C41.0239 23.67 41.3306 23.7966 41.5839 24.05C41.8373 24.3033 41.9639 24.61 41.9639 24.97C41.9639 25.33 41.8373 25.6366 41.5839 25.89C41.3306 26.1433 41.0239 26.27 40.6639 26.27C40.3039 26.27 39.9973 26.1433 39.7439 25.89C39.4906 25.6366 39.3639 25.33 39.3639 24.97C39.3639 24.61 39.4906 24.3033 39.7439 24.05C39.9973 23.7966 40.3039 23.67 40.6639 23.67ZM43.7039 23.67C44.0639 23.67 44.3706 23.7966 44.6239 24.05C44.8773 24.3033 45.0039 24.61 45.0039 24.97C45.0039 25.33 44.8773 25.6366 44.6239 25.89C44.3706 26.1433 44.0639 26.27 43.7039 26.27C43.3573 26.27 43.0573 26.1433 42.8039 25.89C42.5506 25.6366 42.4239 25.33 42.4239 24.97C42.4239 24.61 42.5506 24.3033 42.8039 24.05C43.0573 23.7966 43.3573 23.67 43.7039 23.67ZM50.8785 8.60996C51.2385 8.60996 51.5451 8.73663 51.7985 8.98996C52.0518 9.24329 52.1785 9.54996 52.1785 9.90996C52.1785 10.2566 52.0518 10.5566 51.7985 10.81C51.5451 11.0633 51.2385 11.19 50.8785 11.19C50.5318 11.19 50.2318 11.0633 49.9785 10.81C49.7251 10.5566 49.5985 10.2566 49.5985 9.90996C49.5985 9.54996 49.7251 9.24329 49.9785 8.98996C50.2318 8.73663 50.5318 8.60996 50.8785 8.60996ZM52.0985 13.01V19.87V20.17H53.1185V22.21H52.4185L51.6785 21.39H51.6385C51.1851 21.9366 50.6185 22.21 49.9385 22.21H46.0785V20.17H49.0985C49.2851 20.17 49.4185 20.1166 49.4985 20.01C49.6185 19.9033 49.6785 19.77 49.6785 19.61V13.01H52.0985ZM59.193 16.37C60.9797 13.9566 63.1863 12.75 65.813 12.75C67.413 12.75 68.733 13.25 69.773 14.25C70.7197 15.1566 71.193 16.3033 71.193 17.69V19.53C71.193 19.61 71.1863 19.7233 71.173 19.87C71.173 20.0033 71.173 20.1033 71.173 20.17H71.833V22.21H71.433L70.773 21.39H70.713C70.273 21.9366 69.7063 22.21 69.013 22.21H53.173V20.17H56.773L56.753 13.01H59.193V16.37ZM68.753 17.81C68.7397 16.85 68.373 16.09 67.653 15.53C67.0397 15.0766 66.2997 14.85 65.433 14.85C64.0997 14.85 62.8663 15.4033 61.733 16.51C60.693 17.3766 59.8463 18.5966 59.193 20.17H68.253C68.5863 20.17 68.753 20.0033 68.753 19.67V17.81ZM73.8286 8.60996C74.1886 8.60996 74.4953 8.73663 74.7486 8.98996C75.002 9.24329 75.1286 9.54996 75.1286 9.90996C75.1286 10.2566 75.002 10.5566 74.7486 10.81C74.4953 11.0633 74.1886 11.19 73.8286 11.19C73.4686 11.19 73.162 11.0633 72.9086 10.81C72.6553 10.5566 72.5286 10.2566 72.5286 9.90996C72.5286 9.54996 72.6553 9.24329 72.9086 8.98996C73.162 8.73663 73.4686 8.60996 73.8286 8.60996ZM76.8686 8.60996C77.2286 8.60996 77.5353 8.73663 77.7886 8.98996C78.042 9.24329 78.1686 9.54996 78.1686 9.90996C78.1686 10.2566 78.042 10.5566 77.7886 10.81C77.5353 11.0633 77.2286 11.19 76.8686 11.19C76.522 11.19 76.222 11.0633 75.9686 10.81C75.7153 10.5566 75.5886 10.2566 75.5886 9.90996C75.5886 9.54996 75.7153 9.24329 75.9686 8.98996C76.222 8.73663 76.522 8.60996 76.8686 8.60996ZM77.9086 13.01V19.87V20.17H78.9286V22.21H78.2286L77.4886 21.39H77.4486C76.9953 21.9366 76.4286 22.21 75.7486 22.21H71.8886V20.17H74.9086C75.0953 20.17 75.2286 20.1166 75.3086 20.01C75.4286 19.9033 75.4886 19.77 75.4886 19.61V13.01H77.9086ZM85.0032 7.88996V20.01C85.0032 20.57 84.8232 21.05 84.4632 21.45C84.0498 21.9566 83.5098 22.21 82.8432 22.21H78.9832V20.17H82.0632C82.2098 20.17 82.3365 20.1166 82.4432 20.01C82.5365 19.9166 82.5832 19.8033 82.5832 19.67V7.88996H85.0032ZM90.4069 7.88996V21.71L89.1669 22.71H87.9669V7.88996H90.4069Z" fill="black"/>
<path d="M105.282 11.71C105.282 5.35869 110.431 0.209961 116.782 0.209961H117.282V12.21H105.282V11.71Z" fill="black"/>
<path d="M116.782 30.21C110.431 30.21 105.282 25.0612 105.282 18.71L105.282 18.21L117.282 18.21L117.282 30.21L116.782 30.21Z" fill="black"/>
<path d="M122.782 0.20996C129.134 0.209961 134.282 5.35869 134.282 11.71L134.282 12.21L122.282 12.21L122.282 0.20996L122.782 0.20996Z" fill="black"/>
<circle cx="128.282" cy="24.21" r="6" fill="black"/>
</svg>
