<svg width="309" height="12" viewBox="0 0 309 12" fill="none" xmlns="http://www.w3.org/2000/svg">
<path fill-rule="evenodd" clip-rule="evenodd" d="M90.9304 7.64589C83.318 5.10135 75.0845 5.10135 67.4721 7.64589C58.7295 10.5682 49.2738 10.5682 40.5312 7.64589C32.9188 5.10135 24.6853 5.10135 17.0729 7.64589L4.47313 11.8575C3.03456 12.3384 1.47855 11.562 0.997695 10.1234C0.516836 8.68486 1.29321 7.12885 2.73179 6.64799L15.3316 2.43636C24.0742 -0.485948 33.5299 -0.485949 42.2725 2.43636C49.8849 4.9809 58.1184 4.9809 65.7308 2.43636C74.4734 -0.485948 83.9291 -0.485949 92.6717 2.43636C100.284 4.9809 108.518 4.9809 116.13 2.43636C124.873 -0.485948 134.328 -0.485948 143.071 2.43636C150.683 4.9809 158.917 4.9809 166.529 2.43636C175.272 -0.485948 184.728 -0.485948 193.47 2.43636C201.083 4.9809 209.316 4.9809 216.928 2.43636C225.671 -0.485947 235.127 -0.485948 243.869 2.43636C251.482 4.9809 259.715 4.9809 267.328 2.43636C276.07 -0.485946 285.526 -0.485946 294.268 2.43637L306.868 6.64799C308.307 7.12885 309.083 8.68486 308.602 10.1234C308.122 11.562 306.565 12.3384 305.127 11.8575L292.527 7.64589C284.915 5.10135 276.681 5.10135 269.069 7.64589C260.326 10.5682 250.871 10.5682 242.128 7.64589C234.516 5.10135 226.282 5.10135 218.67 7.64589C209.927 10.5682 200.471 10.5682 191.729 7.64589C184.116 5.10135 175.883 5.10135 168.27 7.64589C159.528 10.5682 150.072 10.5682 141.33 7.64589C133.717 5.10135 125.484 5.10135 117.871 7.64589C109.129 10.5682 99.6729 10.5682 90.9304 7.64589Z" fill="#D0C2B9"/>
</svg>
