<svg width="40" height="45" viewBox="0 0 40 45" fill="none" xmlns="http://www.w3.org/2000/svg">
<path d="M4.03688 26.4871C4.42315 27.5777 4.91107 28.4746 5.56162 29.2695C6.98472 31.0124 8.83475 32.0316 11.0304 32.4596C13.4192 32.9284 15.8079 32.8775 18.1865 32.48C18.6541 32.3985 19.1319 32.3271 19.5893 32.2048C19.9959 32.0927 20.1077 31.7054 19.8129 31.4302C19.7113 31.3385 19.4978 31.2977 19.3453 31.3181C18.3898 31.4404 17.4445 31.6341 16.489 31.736C14.3035 31.9602 12.1384 31.8787 10.0241 31.2162C6.80175 30.2174 4.57562 27.1802 4.53496 23.8067C4.5248 22.8282 4.66711 21.8906 4.97205 20.9631C5.01271 20.8408 5.07371 20.7389 5.14486 20.5758C5.33799 21.1262 5.4803 21.6358 5.6836 22.1148C6.02921 22.9098 6.41548 23.6945 6.79159 24.4793C6.85258 24.6118 6.97456 24.7239 7.08637 24.8258C7.23885 24.9583 7.42182 24.9583 7.58446 24.8258C7.75726 24.6934 7.85891 24.5303 7.75726 24.2959C7.7166 24.2041 7.67594 24.1124 7.62512 24.0207C6.42565 21.9211 5.78525 19.6382 5.38882 17.2736C5.13469 15.7448 5.03305 14.2059 5.08387 12.6567C5.15503 10.5979 5.49047 8.60029 6.27317 6.69439C7.29984 4.17698 9.16003 2.52589 11.6606 1.55766C13.0329 1.02767 14.456 0.640381 15.9299 0.762684C19.2945 1.02767 22.0187 2.45455 23.8586 5.37963C24.8649 6.98996 25.3732 8.75316 25.5663 10.6285C25.8204 13.1051 25.8408 15.5818 25.6171 18.0584C25.4342 20.0866 25.0784 22.0842 24.1636 23.929C23.8383 24.5812 23.4113 25.1826 23.0251 25.8043C22.8726 26.0489 22.71 26.2731 22.5676 26.5177C22.4457 26.7317 22.4863 26.9254 22.6998 27.0783C22.9234 27.2311 23.1877 27.2108 23.3504 26.9967C23.5333 26.7623 23.6756 26.5075 23.8586 26.2731C24.4888 25.4272 25.0072 24.5303 25.3935 23.5519C25.424 23.4907 25.4647 23.4296 25.5358 23.3073C26.0441 25.3966 26.9183 27.2006 28.4633 28.6274C27.6298 28.7701 26.8268 28.8924 26.0237 29.0453C25.6781 29.1167 25.3427 29.2288 25.0072 29.3511C24.6413 29.4734 24.4888 29.7078 24.5702 29.9728C24.6616 30.2683 24.9259 30.3601 25.3224 30.2683C26.1254 30.0747 26.9284 29.8607 27.7518 29.7384C29.8559 29.4326 31.8889 29.7384 33.861 30.4926C35.9753 31.2977 37.7541 32.6125 39.2992 34.2432C39.7262 34.6916 39.6042 35.0789 39.0044 35.1911C36.6868 35.6293 34.5827 36.6281 32.5293 37.7187C30.3439 38.8805 28.2905 40.2564 26.227 41.6222C23.7671 43.2529 21.1039 44.3638 18.1764 44.7511C13.5513 45.3728 9.36333 44.2721 5.67344 41.4081C3.78275 39.9405 2.24784 38.1569 1.19068 35.986C-0.0697786 33.3973 0.194512 30.941 1.99371 28.6988C2.60361 27.9446 3.31516 27.2719 4.02671 26.5075L4.03688 26.4871ZM23.8586 15.5818C23.8688 14.6543 23.7061 13.3395 23.3504 12.0655C22.7405 9.82332 21.6833 7.84608 19.8841 6.31729C17.5665 4.35025 14.4255 4.21775 11.9656 5.97077C10.4002 7.08169 9.36333 8.60028 8.64162 10.3431C7.41165 13.2988 7.22868 16.3462 7.9504 19.4547C8.49931 21.809 9.5463 23.9086 11.4065 25.5087C13.2667 27.1088 15.3912 27.6184 17.7494 26.8337C19.4165 26.2731 20.6566 25.1316 21.6325 23.6945C23.208 21.3708 23.8484 18.7616 23.8688 15.5818H23.8586Z" fill="white"/>
</svg>
