<svg width="38" height="38" viewBox="0 0 38 38" fill="none" xmlns="http://www.w3.org/2000/svg">
<g clip-path="url(#clip0_245_3784)">
<path d="M28.8134 36.2768L9.01843 36.2956C4.66355 36.2996 1.09749 32.7447 1.09254 28.3951L1.07373 8.62407C1.06977 4.27445 4.62891 0.712693 8.98379 0.707751L28.7787 0.688968C33.1336 0.685014 36.6997 4.23985 36.7046 8.58948L36.7234 28.3605C36.7284 32.7111 33.1683 36.2729 28.8134 36.2768Z" fill="url(#paint0_radial_245_3784)"/>
<path d="M28.8134 36.1158L9.01843 36.1345C4.66355 36.1384 1.09749 32.5997 1.09254 28.2697L1.07373 8.58817C1.06977 4.25822 4.62891 0.712586 8.98379 0.707666L28.7787 0.688968C33.1336 0.685032 36.6997 4.22378 36.7046 8.55373L36.7234 28.2353C36.7284 32.5662 33.1683 36.1119 28.8134 36.1158Z" fill="url(#paint1_radial_245_3784)"/>
<path d="M18.8989 25.4125C15.0795 25.4125 11.9707 22.3084 11.9707 18.4926C11.9707 14.6768 15.0795 11.5728 18.8989 11.5728C22.7184 11.5728 25.8272 14.6768 25.8272 18.4926C25.8272 22.3084 22.7184 25.4125 18.8989 25.4125ZM18.8989 13.5499C16.1702 13.5499 13.9502 15.7672 13.9502 18.4926C13.9502 21.2181 16.1702 23.4354 18.8989 23.4354C21.6277 23.4354 23.8477 21.2181 23.8477 18.4926C23.8477 15.7672 21.6277 13.5499 18.8989 13.5499Z" fill="white"/>
<path d="M26.322 12.5623C27.142 12.5623 27.8066 11.8985 27.8066 11.0795C27.8066 10.2606 27.142 9.59668 26.322 9.59668C25.5021 9.59668 24.8374 10.2606 24.8374 11.0795C24.8374 11.8985 25.5021 12.5623 26.322 12.5623Z" fill="white"/>
<path d="M24.8374 31.344H12.9605C9.14102 31.344 6.03223 28.2399 6.03223 24.4241V12.5615C6.03223 8.74566 9.14102 5.6416 12.9605 5.6416H24.8374C28.6569 5.6416 31.7657 8.74566 31.7657 12.5615V24.4241C31.7657 28.2399 28.6569 31.344 24.8374 31.344ZM12.9605 7.61871C10.2317 7.61871 8.01172 9.83603 8.01172 12.5615V24.4241C8.01172 27.1495 10.2317 29.3669 12.9605 29.3669H24.8374C27.5662 29.3669 29.7862 27.1495 29.7862 24.4241V12.5615C29.7862 9.83603 27.5662 7.61871 24.8374 7.61871H12.9605Z" fill="white"/>
</g>
<defs>
<radialGradient id="paint0_radial_245_3784" cx="0" cy="0" r="1" gradientUnits="userSpaceOnUse" gradientTransform="translate(14.3264 36.3213) scale(44.4387 44.385)">
<stop stop-color="#FFDD55"/>
<stop offset="0.328" stop-color="#FF543F"/>
<stop offset="0.348" stop-color="#FC5245"/>
<stop offset="0.504" stop-color="#E64771"/>
<stop offset="0.643" stop-color="#D53E91"/>
<stop offset="0.761" stop-color="#CC39A4"/>
<stop offset="0.841" stop-color="#C837AB"/>
</radialGradient>
<radialGradient id="paint1_radial_245_3784" cx="0" cy="0" r="1" gradientUnits="userSpaceOnUse" gradientTransform="translate(6.81031 0.24643) scale(29.5073 19.5481)">
<stop stop-color="#4168C9"/>
<stop offset="0.999" stop-color="#4168C9" stop-opacity="0"/>
</radialGradient>
<clipPath id="clip0_245_3784">
<rect width="37.2628" height="37.2178" fill="white" transform="translate(0.468262 0.0844727)"/>
</clipPath>
</defs>
</svg>
