<svg width="97" height="71" viewBox="0 0 97 71" fill="none" xmlns="http://www.w3.org/2000/svg">
<path d="M31.1724 59.2517H32.488C33.53 59.2517 34.2817 59.9135 34.2817 61.1479C34.2817 62.4486 33.6026 63.2311 32.4273 63.2311H31.1724V59.2517ZM31.7284 62.7807H32.4092C33.2784 62.7807 33.7059 62.1781 33.7059 61.1629C33.7059 60.2361 33.2058 59.7076 32.4139 59.7076H31.7277V62.7807H31.7284Z" fill="#141414"/>
<path d="M38.5338 61.383H36.7551V62.7641H38.7121L38.6395 63.2311H36.2117V59.2517H38.6143V59.721H36.7543V60.9097H38.533V61.383H38.5338Z" fill="#141414"/>
<path d="M40.8726 62.0975C40.9468 62.5841 41.2741 62.831 41.7371 62.831C42.2001 62.831 42.4951 62.596 42.4951 62.1835C42.4951 61.7709 42.2853 61.5785 41.6101 61.3718C40.7598 61.1178 40.442 60.8307 40.442 60.2588C40.442 59.6065 40.9405 59.1987 41.6843 59.1987C42.5598 59.1987 42.9313 59.702 42.9747 60.2786H42.4265C42.3674 59.8936 42.152 59.642 41.6725 59.642C41.2268 59.642 41.0052 59.8581 41.0052 60.2068C41.0052 60.5554 41.211 60.7006 41.8349 60.8883C42.8225 61.1856 43.0654 61.5674 43.0654 62.1196C43.0654 62.779 42.6127 63.2759 41.7127 63.2759C40.879 63.2759 40.3773 62.8334 40.3213 62.0967H40.8726V62.0975Z" fill="#141414"/>
<path d="M45.4855 59.2517V63.2311H44.9326V59.2517H45.4855Z" fill="#141414"/>
<path d="M50.6002 63.2309H50.1766C50.1538 63.1141 50.1372 62.9414 50.1285 62.6787C49.9203 63.1228 49.5283 63.2884 48.9737 63.2884C47.9341 63.2884 47.4207 62.4027 47.4207 61.2613C47.4207 60.1199 48.0288 59.1963 49.1528 59.1963C50.0157 59.1963 50.4937 59.6632 50.6081 60.3566H50.063C49.9526 59.9598 49.7018 59.6585 49.126 59.6585C48.3293 59.6585 47.9933 60.3747 47.9933 61.2637C47.9933 62.0982 48.3135 62.8294 49.0771 62.8294C49.8816 62.8294 50.0512 62.2717 50.0512 61.5792V61.5555H49.0581V61.072H50.5986V63.2309H50.6002Z" fill="#141414"/>
<path d="M52.6287 63.2311V59.2517H53.3551C54.8656 62.0006 55.0762 62.3839 55.1456 62.5614H55.1543C55.1172 62.0424 55.1109 61.3995 55.1109 60.7527V59.2517H55.6307V63.2311H54.9508C53.3346 60.2456 53.2053 59.9829 53.1256 59.8196H53.1201C53.1493 60.3323 53.1453 61.0028 53.1453 61.7166V63.2311H52.6287Z" fill="#141414"/>
<path d="M60.0944 61.383H58.3157V62.7641H60.2726L60.2001 63.2311H57.7722V59.2517H60.1748V59.721H58.3149V60.9097H60.0936V61.383H60.0944Z" fill="#141414"/>
<path d="M62.6175 61.4524V63.2311H62.0693V59.2517H63.5183C64.2306 59.2517 64.7322 59.6051 64.7322 60.2874C64.7322 60.8561 64.401 61.1132 64.0854 61.2173C64.4972 61.3546 64.6676 61.6788 64.6676 62.212V62.2901C64.6676 62.6553 64.6778 63 64.7228 63.2319H64.1793C64.1249 63.071 64.1107 62.7215 64.1107 62.2916V62.2072C64.1107 61.6638 63.9143 61.4532 63.284 61.4532H62.6183L62.6175 61.4524ZM62.6175 60.9988H63.3274C63.8212 60.9988 64.1714 60.8592 64.1714 60.3237C64.1714 59.9088 63.8898 59.7045 63.4434 59.7045H62.6175V60.9988Z" fill="#141414"/>
<path d="M80.4857 38.025C79.2829 33.3657 75.9053 30.6066 71.7603 28.6173C71.1964 28.3467 70.6229 28.0967 70.0156 27.8198C71.4472 26.2431 72.9206 24.9187 74.0352 23.3396C78.1636 17.4901 75.7492 10.6695 68.9681 8.79698C68.3513 8.62661 67.7139 8.4515 67.0798 8.39471H67.0853H67.0774C66.9693 8.38525 66.8613 8.37815 66.7532 8.37578C60.2245 8.25667 46.122 8.15335 46.122 8.15335V8.90268L48.5806 9.0281C51.3461 9.39251 52.1286 10.2199 52.2902 12.994C52.3257 13.5959 52.3218 14.2009 52.3218 14.8051C52.3273 22.4522 52.5166 30.1065 52.2437 37.7442C52.1333 40.8283 53.18 42.7947 55.5952 44.3494C56.7807 45.1121 57.9316 45.9301 59.4176 46.9405V44.6341C59.4176 34.1695 59.4176 23.7048 59.4176 13.2394C59.4176 12.7866 59.4334 12.3338 59.4215 11.8811C59.3939 10.8786 59.9082 10.429 60.8753 10.3485C63.8868 10.0992 66.3241 11.101 67.9995 13.6653C69.5439 16.0292 70.0937 18.6614 69.7482 21.4465C69.5991 22.6486 69.1187 25.0481 66.9961 26.5988C65.3681 27.7875 63.5855 27.8545 62.8164 27.8348C64.1763 28.3049 69.5376 30.3321 72.2139 35.8354C73.8277 39.1545 73.6747 42.181 73.6629 42.9383C73.5769 48.5851 70.7168 51.6944 65.0739 51.61C62.4339 51.5706 60.0557 50.6864 57.7699 49.4732C50.4776 45.6043 46.0708 38.9234 41.3358 32.7844C42.6917 31.3244 43.9813 29.9913 45.2063 28.6023C47.9859 25.4519 49.6329 21.8315 49.035 17.565C48.2943 12.2944 44.4278 8.72994 38.6074 8.4373C34.3299 8.22276 27.2128 8.1565 22.1204 8.13757V8.1352H21.2694C18.2113 8.12653 16.0706 8.1352 16.0706 8.1352V8.88454L17.3452 8.92634C21.1589 9.35701 21.8231 10.0361 21.8286 13.853C21.846 24.8714 21.8444 35.889 21.7947 46.9074C21.7884 48.2988 21.6219 49.7438 21.1944 51.0555C21.0256 51.5737 20.3694 52.4903 19.3795 52.7593C19.0056 52.861 18.3793 52.8658 17.1275 52.876H16.4894V53.6253H34.9372V52.876H32.9227C32.5244 52.8374 30.8498 52.6757 30.0066 51.8845C29.4679 51.3789 29.3354 50.6998 29.2462 49.7919C29.0743 48.0432 28.9378 46.2827 28.9276 44.5268C28.8889 37.685 28.9055 30.8424 28.9031 24.0006C28.9023 20.1766 28.9284 16.3526 28.8897 12.5295C28.8794 11.4851 29.2415 11.0197 30.3 10.821C35.442 9.85473 40.2378 12.5381 41.5061 17.6005C42.1009 19.9731 42.2145 22.6187 41.865 25.0426C41.1252 30.1751 38.8275 31.9648 33.579 32.2472C33.4938 32.252 33.4117 32.3166 33.5245 32.2669C35.289 34.6317 37.0858 37.0232 38.863 39.4282C41.1638 42.5423 43.3779 45.7242 45.7624 48.772C47.7927 51.3679 50.323 53.4163 53.7432 53.7421C57.3416 54.0852 60.9628 54.2714 64.5778 54.3408C67.4631 54.396 70.2632 53.7965 72.9119 52.5573C78.8277 49.788 81.9931 43.8659 80.485 38.0258L80.4857 38.025Z" fill="#141414"/>
</svg>
