<svg width="28" height="30" viewBox="0 0 28 30" fill="none" xmlns="http://www.w3.org/2000/svg">
<path fill-rule="evenodd" clip-rule="evenodd" d="M0.732008 12.7082C0.732008 12.7157 0.732008 12.72 0.730659 12.7239C0.72879 12.7292 0.72444 12.7335 0.714172 12.7438V23.3995C0.714172 23.6133 0.856731 23.8271 1.07055 23.8984L9.6236 26.9276C9.65022 26.9365 9.68124 26.9454 9.7123 26.9521C9.74362 26.9588 9.77495 26.9633 9.80179 26.9633C9.83903 26.9633 9.88492 26.9546 9.92743 26.9433C9.94591 26.9384 9.96375 26.933 9.97998 26.9276L18.533 23.8984C18.7468 23.8271 18.8894 23.6311 18.8894 23.3995V12.7082C18.8894 12.4943 18.7468 12.2805 18.533 12.2092L9.97998 9.18001C9.87305 9.14442 9.74832 9.14442 9.64144 9.18001H9.6236L1.07055 12.2092C1.07055 12.2271 1.05271 12.2271 1.05271 12.2271C0.92799 12.2805 0.803267 12.4052 0.749802 12.5478C0.749802 12.5656 0.732008 12.6013 0.732008 12.6191V12.7082ZM17.8381 13.5683V23.0609L10.3542 25.716V16.2188L17.8381 13.5683ZM9.92273 15.2475L2.87027 12.7438L9.81962 10.2848L16.8837 12.7808L9.92273 15.2475ZM9.28506 16.1472V25.716L1.80114 23.0431V13.4922L9.28506 16.1472Z" fill="white"/>
<path fill-rule="evenodd" clip-rule="evenodd" d="M9.29744 15.7453C9.29744 15.7528 9.29744 15.7571 9.29609 15.7611C9.29422 15.7663 9.28987 15.7706 9.2796 15.7809V26.4366C9.2796 26.6504 9.42216 26.8643 9.63598 26.9355L18.189 29.9647C18.2157 29.9736 18.2467 29.9825 18.2777 29.9892C18.3091 29.9959 18.3404 30.0004 18.3672 30.0004C18.4045 30.0004 18.4504 29.9917 18.4929 29.9804C18.5113 29.9755 18.5292 29.9701 18.5454 29.9647L27.0985 26.9355C27.3123 26.8643 27.4548 26.6682 27.4548 26.4366V15.7453C27.4548 15.5314 27.3123 15.3176 27.0985 15.2463L18.5454 12.2171C18.4385 12.1815 18.3138 12.1815 18.2069 12.2171H18.189L9.63598 15.2463C9.63598 15.2642 9.61814 15.2642 9.61814 15.2642C9.49342 15.3176 9.3687 15.4423 9.31523 15.5849C9.31523 15.6027 9.29744 15.6384 9.29744 15.6562V15.7453ZM26.4035 16.6054V26.098L18.9196 28.7531V19.2559L26.4035 16.6054ZM18.4882 18.2846L11.4357 15.7809L18.3851 13.3219L25.4491 15.8179L18.4882 18.2846ZM17.8505 19.1843V28.7531L10.3666 26.0802V16.5293L17.8505 19.1843Z" fill="white"/>
<path d="M26.4035 26.098V16.6054L18.9196 19.2559V28.7531L26.4035 26.098Z" fill="#6F5C59"/>
<path d="M17.8505 28.7531V19.1843L10.3666 16.5293V26.0802L17.8505 28.7531Z" fill="#6F5C59"/>
<path d="M11.4357 15.7809L18.4882 18.2846L25.4491 15.8179L18.3851 13.3219L11.4357 15.7809Z" fill="#6F5C59"/>
<path fill-rule="evenodd" clip-rule="evenodd" d="M5.02583 3.55487C5.02583 3.56236 5.02583 3.56671 5.02448 3.57062C5.02261 3.57584 5.01826 3.58019 5.008 3.59046V14.2462C5.008 14.46 5.15055 14.6738 5.36437 14.7451L13.9174 17.7743C13.944 17.7832 13.9751 17.792 14.0061 17.7987C14.0374 17.8054 14.0688 17.81 14.0956 17.81C14.1329 17.81 14.1787 17.8013 14.2212 17.7899C14.2397 17.7851 14.2576 17.7797 14.2738 17.7743L22.8269 14.7451C23.0407 14.6738 23.1832 14.4778 23.1832 14.2462V3.55487C23.1832 3.34101 23.0407 3.12715 22.8269 3.05589L14.2738 0.0266891C14.1669 -0.00889638 14.0421 -0.00889638 13.9353 0.0266891H13.9174L5.36437 3.05589C5.36437 3.07373 5.34654 3.07373 5.34654 3.07373C5.22181 3.12715 5.09709 3.25192 5.04362 3.39443C5.04362 3.41227 5.02583 3.44794 5.02583 3.46578V3.55487ZM22.1319 4.41493V13.9076L14.648 16.5626V7.06548L22.1319 4.41493ZM14.2165 6.09415L7.16409 3.59046L14.1134 1.13149L21.1775 3.62744L14.2165 6.09415ZM13.5789 6.99388V16.5626L6.09496 13.8898V4.33889L13.5789 6.99388Z" fill="white"/>
<path d="M13.5789 16.5626V6.99388L6.09496 4.33889V13.8898L13.5789 16.5626Z" fill="#6F5C59"/>
<path d="M22.1319 13.9076V4.41493L14.648 7.06548V16.5626L22.1319 13.9076Z" fill="#6F5C59"/>
<path d="M7.16409 3.59046L14.2165 6.09415L21.1775 3.62744L14.1134 1.13149L7.16409 3.59046Z" fill="#6F5C59"/>
</svg>
