<svg width="41" height="37" viewBox="0 0 41 37" fill="none" xmlns="http://www.w3.org/2000/svg">
<path d="M10.075 36.0817C10.204 36.3695 10.4417 36.5941 10.7359 36.7061C11.0301 36.8181 11.3566 36.8084 11.6436 36.6791L39.7811 23.9991C40.0682 23.8698 40.2922 23.6314 40.4039 23.3364C40.5156 23.0415 40.5059 22.7141 40.3769 22.4263L34.4792 9.26999L4.17725 22.9253L10.075 36.0817ZM10.3438 24.7113C10.2793 24.5674 10.2745 24.4037 10.3303 24.2563C10.3862 24.1088 10.4982 23.9896 10.6417 23.9249L16.8644 21.1207C17.0079 21.056 17.1712 21.0512 17.3183 21.1072C17.4654 21.1632 17.5842 21.2755 17.6487 21.4194L19.5944 25.7596C19.6589 25.9035 19.6637 26.0672 19.6079 26.2147C19.552 26.3622 19.44 26.4813 19.2965 26.546L13.0738 29.3502C12.9303 29.4149 12.767 29.4198 12.6199 29.3638C12.4728 29.3077 12.354 29.1954 12.2895 29.0516L10.3438 24.7113ZM29.0801 0.127762L0.942564 12.8077C0.655544 12.9371 0.431525 13.1754 0.319791 13.4704C0.208056 13.7653 0.217758 14.0927 0.346762 14.3805L2.35321 18.8563L32.6552 5.20101L30.6487 0.725131C30.5197 0.437355 30.282 0.212747 29.9878 0.100718C29.6936 -0.0113102 29.3671 -0.00158235 29.0801 0.127762Z" fill="black"/>
</svg>
