<svg width="28" height="31" viewBox="0 0 28 31" fill="none" xmlns="http://www.w3.org/2000/svg">
<path d="M14.0845 0.65332C8.82703 0.65332 4.53903 4.94132 4.53903 10.1988C4.53903 13.4854 6.21694 16.4044 8.75778 18.1249C3.8945 20.213 0.44812 25.039 0.44812 30.6533H3.17539C3.17539 27.2016 4.7734 24.1281 7.2663 22.1306L13.147 27.5425L14.0845 28.4374L15.022 27.5425L20.9027 22.1306C23.3956 24.1281 24.9936 27.2016 24.9936 30.6533H27.7208C27.7208 25.039 24.2745 20.213 19.4112 18.1249C21.952 16.4044 23.6299 13.4854 23.6299 10.1988C23.6299 4.94132 19.3419 0.65332 14.0845 0.65332ZM14.0845 3.38059C17.8664 3.38059 20.9027 6.41682 20.9027 10.1988C20.9027 13.9807 17.8664 17.017 14.0845 17.017C10.3025 17.017 7.2663 13.9807 7.2663 10.1988C7.2663 6.41682 10.3025 3.38059 14.0845 3.38059ZM14.0845 19.7442C15.6452 19.7442 17.1367 20.0532 18.4737 20.6391L14.0845 24.73L9.69528 20.6391C11.0323 20.0532 12.5238 19.7442 14.0845 19.7442Z" fill="#6F5C59"/>
</svg>
